# xmcd
#
# Track frame offsets: 
#        150
#        2011
#        25431
#        45148
#        59923
#        86241
#        103903
#        123575
#        143759
#        154535
#        160630
#        175419
#        197387
#
# Disc length: 2968 seconds
#
# Revision: 0
# Processed by: cddbd v1.5.2PL0 Copyright (c) Steve Scherf et al.
# Submitted via: ExactAudioCopyFreeDBPlugin 1.0
#
DISCID=a70b960d
DTITLE=Liniker e os Caramelows - Remonta
DYEAR=2016
DGENRE=Soul
TTITLE0=Intro
TTITLE1=Remonta
TTITLE2=Caeu
TTITLE3=Liniker e os Caramelows e Xenia França - Prendedor de Varal
TTITLE4=Liniker e os Caramelows e Tássia Reis - Tua
TTITLE5=Lina X
TTITLE6=Louise du Brésil
TTITLE7=Sem Nome, Mas Com Endereço
TTITLE8=Você Fez Merda
TTITLE9=Funzy
TTITLE10=Liniker e os Caramelows e Aeromoças and Tenistas Ruas e Tássia 
TTITLE10=Reis - BoxOkê
TTITLE11=Zero
TTITLE12=Liniker e os Caramelows e Tulipa Ruiz e Raquel Virgínia e Ass
TTITLE12=ucena Assucena - Ralador de Pia
EXTD=
EXTT0=
EXTT1=
EXTT2=
EXTT3=
EXTT4=
EXTT5=
EXTT6=
EXTT7=
EXTT8=
EXTT9=
EXTT10=
EXTT11=
EXTT12=
PLAYORDER=
